P1
# Italic U+00006B Latin minuscule k.
6 8
0 0 0 0 0 0
0 0 0 1 0 0
0 0 0 1 0 0
0 0 1 0 0 1
0 0 1 0 1 0
0 0 1 1 0 0
0 1 0 1 0 0
0 1 0 0 1 0
