P1
# Italic U+000073 Latin minuscule s.
6 8
0 0 0 0 0 0
0 0 0 0 0 0
0 0 0 0 0 0
0 0 0 1 1 1
0 0 1 0 0 0
0 0 0 1 0 0
0 0 0 0 1 0
0 1 1 1 0 0
