P1
# Italic U+00004B Latin majuscule K.
6 8
0 0 0 0 0 0
0 0 1 0 0 1
0 0 1 0 1 0
0 1 0 1 0 0
0 1 1 0 0 0
0 1 0 1 0 0
1 0 0 1 0 0
1 0 0 0 1 0
