P1
# Italic U+000026 ampersand.
6 8
0 0 0 0 0 0
0 0 0 1 0 0
0 0 1 0 1 0
0 0 1 0 1 0
0 0 1 1 0 0
0 1 0 1 1 0
0 1 0 1 0 0
0 0 1 0 1 0
