P1
# Italic U+000058 Latin majuscule X.
6 8
0 0 0 0 0 0
0 0 1 0 0 1
0 0 1 0 0 1
0 0 1 0 1 0
0 0 0 1 0 0
0 0 1 1 0 0
0 1 0 0 1 0
0 1 0 0 1 0
