P1
# Italic U+000063 Latin minuscule c.
6 8
0 0 0 0 0 0
0 0 0 0 0 0
0 0 0 0 0 0
0 0 0 1 1 0
0 0 1 0 0 1
0 1 0 0 0 0
0 1 0 0 1 0
0 0 1 1 0 0
