P1
# U+000030 Western-Arabic digit zero, and
# U+0000D8 Latin majuscule O with stroke.
6 8
0 0 0 0 0 0
0 0 1 1 1 0
0 1 0 0 0 1
0 1 0 0 1 1
0 1 0 1 0 1
0 1 1 0 0 1
0 1 0 0 0 1
0 0 1 1 1 0
