P1
# Italic U+00005E (spacing) circumflex accent above.
6 8
0 0 0 0 0 0
0 0 0 1 0 0
0 0 1 0 1 0
0 1 0 0 1 0
0 0 0 0 0 0
0 0 0 0 0 0
0 0 0 0 0 0
0 0 0 0 0 0
