P1
# Italic U+000072 Latin minuscule r.
6 8
0 0 0 0 0 0
0 0 0 0 0 0
0 0 0 0 0 0
0 0 1 0 1 1
0 0 1 1 0 1
0 0 1 0 0 0
0 1 0 0 0 0
0 1 0 0 0 0
