P1
# U+000033 Western-Arabic digit three.
6 8
0 0 0 0 0 0
0 1 1 1 1 1
0 0 0 0 1 0
0 0 0 1 0 0
0 0 0 0 1 0
0 0 0 0 0 1
0 1 0 0 0 1
0 0 1 1 1 0
