P1
# U+000071 Latin minuscule q.
6 8
0 0 0 0 0 0
0 0 0 0 0 0
0 0 0 0 0 0
0 0 1 1 0 1
0 1 0 0 1 1
0 0 1 1 1 1
0 0 0 0 0 1
0 0 0 0 0 1
