P1
# Italic U+00003E greater-than sign.
6 8
0 0 0 0 0 0
0 0 1 0 0 0
0 0 0 1 0 0
0 0 0 0 1 0
0 0 0 0 0 1
0 0 0 1 1 0
0 1 1 0 0 0
1 0 0 0 0 0
