P1
# Italic U+00004F Latin majuscule O.
6 8
0 0 0 0 0 0
0 0 0 1 1 0
0 0 1 0 0 1
0 0 1 0 0 1
0 1 0 0 0 1
0 1 0 0 1 0
0 1 0 0 1 0
0 0 1 1 0 0
