P1
# Italic U+000075 Latin minuscule u.
6 8
0 0 0 0 0 0
0 0 0 0 0 0
0 0 0 0 0 0
0 0 1 0 0 1
0 0 1 0 0 1
0 1 0 0 1 1
0 1 0 1 1 0
0 0 1 0 1 0
