P1
# Italic U+000048 Latin majuscule H.
6 8
0 0 0 0 0 0
0 0 1 0 0 1
0 0 1 0 0 1
0 1 0 0 1 0
0 1 1 1 1 0
0 1 0 0 1 0
1 0 0 1 0 0
1 0 0 1 0 0
