P1
# U+000022 inch sign.
6 8
0 0 0 0 0 0
0 0 1 0 1 0
0 0 1 0 1 0
0 0 1 0 1 0
0 0 0 0 0 0
0 0 0 0 0 0
0 0 0 0 0 0
0 0 0 0 0 0
