P1
# Italic U+000038 Western-Arabic digit eight.
6 8
0 0 0 0 0 0
0 0 0 1 1 1
0 0 1 0 0 1
0 0 1 0 0 1
0 0 1 1 1 0
0 1 0 0 1 0
0 1 0 0 1 0
0 1 1 1 0 0
