P1
# Italic U+00005B left bracket.
6 8
0 0 0 0 0 0
0 0 0 0 1 1
0 0 0 0 1 0
0 0 0 1 0 0
0 0 0 1 0 0
0 0 0 1 0 0
0 0 1 0 0 0
0 0 1 1 0 0
