P1
# Italic U+000032 Western-Arabic digit digit two.
6 8
0 0 0 0 0 0
0 0 0 1 1 0
0 0 1 0 0 1
0 0 0 0 0 1
0 0 0 0 1 0
0 0 0 1 0 0
0 0 1 0 0 0
0 1 1 1 1 0
