P1
# U+000049 Latin majuscule I.
6 8
0 0 0 0 0 0
0 0 1 1 1 0
0 0 0 1 0 0
0 0 0 1 0 0
0 0 0 1 0 0
0 0 0 1 0 0
0 0 0 1 0 0
0 0 1 1 1 0
