P1
# Italic U+000044 Latin majuscule D.
6 8
0 0 0 0 0 0
0 0 0 1 1 0
0 0 0 1 0 1
0 0 1 0 0 1
0 0 1 0 0 1
0 0 1 0 0 1
0 1 0 0 1 0
0 1 1 1 0 0
