P1
# Italic U+000055 Latin majuscule U.
6 8
0 0 0 0 0 0
0 0 1 0 0 1
0 0 1 0 0 1
0 0 1 0 0 1
0 1 0 0 1 0
0 1 0 0 1 0
0 1 0 0 1 0
0 0 1 1 0 0
