P1
# U+00002C comma, and U+00201A low 9 quotation mark, and
# italic U+00002C comma, and italic U+00201A low 9 quotation mark.
6 8
0 0 0 0 0 0
0 0 0 0 0 0
0 0 0 0 0 0
0 0 0 0 0 0
0 0 0 0 0 0
0 0 1 1 0 0
0 0 0 1 0 0
0 0 1 0 0 0
