P1
# Italic U+000031 Western-Arabic digit one.
6 8
0 0 0 0 0 0
0 0 0 1 1 0
0 0 1 1 1 0
0 0 0 1 0 0
0 0 0 1 0 0
0 0 1 0 0 0
0 0 1 0 0 0
0 1 1 1 0 0
