P1
# U+000056 Latin majuscule V.
6 8
0 0 0 0 0 0
0 1 0 0 0 1
0 1 0 0 0 1
0 1 0 0 0 1
0 1 0 0 0 1
0 0 1 0 1 0
0 0 1 0 1 0
0 0 0 1 0 0
