P1
# U+000062 Latin minuscule b.
6 8
0 0 0 0 0 0
0 1 0 0 0 0
0 1 0 0 0 0
0 1 0 1 1 0
0 1 1 0 0 1
0 1 0 0 0 1
0 1 0 0 0 1
0 1 1 1 1 0
