P1
# U+000057 Latin majuscule W.
6 8
0 0 0 0 0 0
0 1 0 0 0 1
0 1 0 0 0 1
0 1 0 0 0 1
0 1 0 1 0 1
0 1 0 1 0 1
0 1 0 1 0 1
0 0 1 0 1 0
