P1
# U+000076 Latin minuscule v.
6 8
0 0 0 0 0 0
0 0 0 0 0 0
0 0 0 0 0 0
0 1 0 0 0 1
0 1 0 0 0 1
0 1 0 0 0 1
0 0 1 0 1 0
0 0 0 1 0 0
