P1
# U+00006F Latin minuscule o, and U+0025CB white circle.
6 8
0 0 0 0 0 0
0 0 0 0 0 0
0 0 0 0 0 0
0 0 1 1 1 0
0 1 0 0 0 1
0 1 0 0 0 1
0 1 0 0 0 1
0 0 1 1 1 0
