P1
# Italic U+000028 left parenthesis.
6 8
0 0 0 0 0 0
0 0 0 0 1 1
0 0 0 1 0 0
0 0 1 0 0 0
0 0 1 0 0 0
0 0 1 0 0 0
0 0 0 1 0 0
0 0 0 0 1 0
