P1
# Italic U+000061 Latin minuscule a.
6 8
0 0 0 0 0 0
0 0 0 0 0 0
0 0 0 0 0 0
0 0 0 1 1 0
0 0 0 0 0 1
0 0 1 1 1 0
0 1 0 0 1 0
0 1 1 1 0 0
