P1
# Italic U+000077 Latin minuscule w.
6 8
0 0 0 0 0 0
0 0 0 0 0 0
0 0 0 0 0 0
0 1 0 0 0 1
0 1 0 0 0 1
1 0 0 0 1 0
1 0 1 0 1 0
0 1 0 1 0 0
