P1
# Italic U+000066 Latin minuscule f.
6 8
0 0 0 0 0 0
0 0 0 0 1 0
0 0 0 1 0 1
0 0 1 0 0 0
0 1 1 1 0 0
0 0 1 0 0 0
0 1 0 0 0 0
0 1 0 0 0 0
