P1
# Italic U+00006A Latin minuscule j.
6 8
0 0 0 0 0 0
0 0 0 0 0 1
0 0 0 0 0 0
0 0 0 1 1 0
0 0 0 0 1 0
0 0 0 1 0 0
0 1 0 1 0 0
0 0 1 0 0 0
