P1
# Italic U+000078 Latin minuscule x.
6 8
0 0 0 0 0 0
0 0 0 0 0 0
0 0 0 0 0 0
0 0 1 0 0 1
0 0 0 1 1 0
0 0 0 1 0 0
0 0 1 1 0 0
0 1 0 0 1 0
