P1
# Italic U+000065 Latin minuscule e.
6 8
0 0 0 0 0 0
0 0 0 0 0 0
0 0 0 0 0 0
0 0 1 1 1 0
0 1 0 0 0 1
0 1 1 1 1 0
0 1 0 0 0 0
0 0 1 1 0 0
