P1
# Italic U+00004E Latin majuscule N.
6 8
0 0 0 0 0 0
0 0 1 0 0 1
0 0 1 0 0 1
0 0 1 1 0 1
0 1 0 1 0 1
0 1 0 1 1 0
0 1 0 0 1 0
0 1 0 0 1 0
