P1
# U+00005D right bracket.
6 8
0 0 0 0 0 0
0 0 1 1 0 0
0 0 0 1 0 0
0 0 0 1 0 0
0 0 0 1 0 0
0 0 0 1 0 0
0 0 0 1 0 0
0 0 1 1 0 0
