P1
# Italic U+000021 exclamation point.
6 8
0 0 0 0 0 0
0 0 0 0 1 0
0 0 0 0 1 0
0 0 0 1 0 0
0 0 0 1 0 0
0 0 0 0 0 0
0 0 1 0 0 0
0 0 1 0 0 0
