P1
# Italic U+000030 Western-Arabic digit zero.
6 8
0 0 0 0 0 0
0 0 0 1 1 0
0 0 1 0 0 1
0 0 1 0 1 1
0 1 0 1 0 1
0 1 1 0 1 0
0 1 0 0 1 0
0 0 1 1 0 0
