P1
# Italic U+000037 Western-Arabic digit seven.
6 8
0 0 0 0 0 0
0 0 1 1 1 1
0 0 0 0 0 1
0 0 0 0 1 0
0 0 0 1 0 0
0 0 1 0 0 0
0 0 1 0 0 0
0 1 0 0 0 0
