P1
# U+000074 Latin minuscule t.
6 8
0 0 0 0 0 0
0 0 1 0 0 0
0 0 1 0 0 0
0 1 1 1 0 0
0 0 1 0 0 0
0 0 1 0 0 0
0 0 1 0 0 1
0 0 0 1 1 0
