P1
# U+000039 Western-Arabic digit nine.
6 8
0 0 0 0 0 0
0 0 1 1 1 0
0 1 0 0 0 1
0 1 0 0 0 1
0 0 1 1 1 1
0 0 0 0 0 1
0 0 0 0 1 0
0 0 1 1 0 0
