P1
# Italic U+000052 Latin majuscule R.
6 8
0 0 0 0 0 0
0 0 0 1 1 0
0 0 0 1 0 1
0 0 1 0 0 1
0 0 1 1 1 0
0 0 1 1 0 0
0 1 0 0 1 0
0 1 0 0 0 1
