P1
# U+000079 Latin minuscule y.
6 8
0 0 0 0 0 0
0 0 0 0 0 0
0 0 0 0 0 0
0 1 0 0 0 1
0 1 0 0 0 1
0 0 1 1 1 1
0 0 0 0 0 1
0 0 1 1 1 0
