P1
# Italic U+00007D right brace.
6 8
0 0 0 0 0 0
0 0 1 1 0 0
0 0 0 0 1 0
0 0 0 0 1 0
0 0 0 0 1 1
0 0 0 1 0 0
0 0 0 1 0 0
0 1 1 0 0 0
