P1
# Italic U+000045 Latin majuscule E.
6 8
0 0 0 0 0 0
0 0 1 1 1 1
0 0 1 0 0 0
0 1 0 0 0 0
0 1 1 1 0 0
0 1 0 0 0 0
1 0 0 0 0 0
1 1 1 1 0 0
