P1
# U+00004A Latin majuscule J.
6 8
0 0 0 0 0 0
0 0 0 1 1 1
0 0 0 0 1 0
0 0 0 0 1 0
0 0 0 0 1 0
0 0 0 0 1 0
0 1 0 0 1 0
0 0 1 1 0 0
