P1
# Italic U+000051 Latin majuscule Q.
6 8
0 0 0 0 0 0
0 0 0 1 1 0
0 0 1 0 0 1
0 0 1 0 0 1
0 1 0 0 1 0
0 1 0 0 1 0
0 1 0 1 0 0
0 0 1 0 1 0
