P1
# Italic U+000059 Latin majuscule Y.
6 8
0 0 0 0 0 0
0 1 0 0 1 0
0 1 0 0 1 0
0 1 0 1 0 0
0 0 1 1 0 0
0 0 1 0 0 0
0 1 0 0 0 0
0 1 0 0 0 0
