P1
# Italic U+00002B plus sign.
6 8
0 0 0 0 0 0
0 0 0 0 0 0
0 0 0 1 0 0
0 0 0 1 0 0
0 1 1 1 1 0
0 0 1 0 0 0
0 0 1 0 0 0
0 0 0 0 0 0
