P1
# Italic U+00007A Latin minuscule z.
6 8
0 0 0 0 0 0
0 0 0 0 0 0
0 0 0 0 0 0
0 0 1 1 1 1
0 0 0 0 1 0
0 0 0 1 0 0
0 0 1 0 0 0
0 1 1 1 1 0
