P1
# U+000053 Latin majuscule S.
6 8
0 0 0 0 0 0
0 0 1 1 1 1
0 1 0 0 0 0
0 1 0 0 0 0
0 0 1 1 1 0
0 0 0 0 0 1
0 0 0 0 0 1
0 1 1 1 1 0
