P1
# Italic U+000047 Latin majuscule G.
6 8
0 0 0 0 0 0
0 0 1 1 1 0
0 1 0 0 0 1
0 1 0 0 0 0
1 0 1 1 1 0
1 0 0 0 1 0
1 0 0 1 0 0
0 1 1 1 0 0
