P1
# Italic U+000070 Latin minuscule p.
6 8
0 0 0 0 0 0
0 0 0 0 0 0
0 0 0 0 0 0
0 0 1 1 1 0
0 0 1 0 0 1
0 0 1 1 1 0
0 1 0 0 0 0
0 1 0 0 0 0
