P1
# Italic U+000068 Latin minuscule h.
6 8
0 0 0 0 0 0
0 0 0 1 0 0
0 0 0 1 0 0
0 0 1 0 1 0
0 0 1 1 0 1
0 0 1 0 0 1
0 1 0 0 1 0
0 1 0 0 1 0
