P1
# Italic U+000043 Latin majuscule C.
6 8
0 0 0 0 0 0
0 0 0 1 1 1
0 0 1 0 0 1
0 0 1 0 0 0
0 0 1 0 0 0
0 1 0 0 0 0
0 1 0 0 1 0
0 1 1 1 0 0
