P1
# U+000035 Western-Arabic digit five.
6 8
0 0 0 0 0 0
0 1 1 1 1 1
0 1 0 0 0 0
0 1 1 1 1 0
0 0 0 0 0 1
0 0 0 0 0 1
0 1 0 0 0 1
0 0 1 1 1 0
