P1
# Italic U+000050 Latin majuscule P.
6 8
0 0 0 0 0 0
0 0 0 1 1 0
0 0 0 1 0 1
0 0 1 0 0 1
0 0 1 1 1 0
0 0 1 0 0 0
0 1 0 0 0 0
0 1 0 0 0 0
