P1
# U+000054 Latin majuscule T.
6 8
0 0 0 0 0 0
0 1 1 1 1 1
0 0 0 1 0 0
0 0 0 1 0 0
0 0 0 1 0 0
0 0 0 1 0 0
0 0 0 1 0 0
0 0 0 1 0 0
