P1
# Italic U+00006D Latin minuscule m.
6 8
0 0 0 0 0 0
0 0 0 0 0 0
0 0 0 0 0 0
0 0 1 0 1 0
0 1 0 1 0 1
0 1 0 0 0 1
1 0 0 0 1 0
1 0 0 0 1 0
