P1
# Italic U+00003D equals sign.
6 8
0 0 0 0 0 0
0 0 0 0 0 0
0 0 0 0 0 0
0 0 1 1 1 1
0 0 0 0 0 0
0 1 1 1 1 0
0 0 0 0 0 0
0 0 0 0 0 0
