P1
# U+00007E tilde.
6 8
0 0 0 0 0 0
0 0 0 0 0 0
0 0 1 0 0 0
0 1 0 1 0 1
0 0 0 0 1 0
0 0 0 0 0 0
0 0 0 0 0 0
0 0 0 0 0 0
