P1
# U+00005A Latin majuscule Z.
6 8
0 0 0 0 0 0
0 1 1 1 1 1
0 0 0 0 0 1
0 0 0 0 1 0
0 0 0 1 0 0
0 0 1 0 0 0
0 1 0 0 0 0
0 1 1 1 1 1
