P1
# U+000034 Western-Arabic digit four.
6 8
0 0 0 0 0 0
0 0 0 0 1 0
0 0 0 1 1 0
0 0 1 0 1 0
0 1 0 0 1 0
0 1 1 1 1 1
0 0 0 0 1 0
0 0 0 0 1 0
